<svg width="22" height="22" viewBox="0 0 22 22" fill="none" xmlns="http://www.w3.org/2000/svg">
<path d="M11.9 1.88V0.916627C11.9 0.673522 11.8052 0.440375 11.6364 0.268474C11.4676 0.096573 11.2387 4.32817e-10 11 4.32817e-10C10.7613 4.32817e-10 10.5324 0.096573 10.3636 0.268474C10.1948 0.440375 10.1 0.673522 10.1 0.916627V1.88C8.28798 2.04544 6.55601 2.71707 5.09486 3.82089C3.6337 4.9247 2.50009 6.41787 1.8189 8.13587C1.13772 9.85387 0.935404 11.73 1.23425 13.5577C1.53309 15.3853 2.3215 17.0934 3.5126 18.4939C3.04222 18.7309 2.64914 19.1013 2.38071 19.5606C2.11228 20.0198 1.97994 20.5483 1.99964 21.0824C1.99964 21.3255 2.09447 21.5587 2.26326 21.7306C2.43205 21.9025 2.66098 21.999 2.89968 21.999C3.13838 21.999 3.36731 21.9025 3.5361 21.7306C3.70489 21.5587 3.79972 21.3255 3.79972 21.0824C3.79224 20.7999 3.89183 20.5253 4.07784 20.3155C4.26385 20.1058 4.52201 19.977 4.79876 19.9559C4.86066 19.9439 4.92105 19.9248 4.97876 19.8991C6.70281 21.2609 8.82267 22 11.0045 22C13.1863 22 15.3062 21.2609 17.0302 19.8991C17.0829 19.9238 17.1378 19.9434 17.194 19.9577C17.4718 19.977 17.7314 20.1047 17.9189 20.3143C18.1064 20.5238 18.2072 20.799 18.2003 21.0824C18.2003 21.3255 18.2951 21.5587 18.4639 21.7306C18.6327 21.9025 18.8616 21.999 19.1003 21.999C19.339 21.999 19.568 21.9025 19.7367 21.7306C19.9055 21.5587 20.0004 21.3255 20.0004 21.0824C20.0201 20.5483 19.8877 20.0198 19.6193 19.5606C19.3509 19.1013 18.9578 18.7309 18.4874 18.4939C19.6785 17.0934 20.4669 15.3853 20.7658 13.5577C21.0646 11.73 20.8623 9.85387 20.1811 8.13587C19.4999 6.41787 18.3663 4.9247 16.9051 3.82089C15.444 2.71707 13.712 2.04544 11.9 1.88ZM2.89968 11.9162C2.89968 10.2845 3.37476 8.68954 4.26483 7.33289C5.15491 5.97625 6.42 4.91887 7.90014 4.29448C9.38028 3.67008 11.009 3.50671 12.5803 3.82502C14.1516 4.14334 15.5949 4.92904 16.7278 6.08277C17.8606 7.23651 18.6321 8.70645 18.9447 10.3067C19.2572 11.907 19.0968 13.5657 18.4837 15.0732C17.8706 16.5806 16.8324 17.869 15.5003 18.7755C14.1682 19.682 12.6021 20.1658 11 20.1658C8.85247 20.1631 6.79364 19.2931 5.2751 17.7466C3.75657 16.2001 2.9023 14.1033 2.89968 11.9162Z" fill="#000"/>
<path d="M17.4507 0.00375987C17.1986 0.00375987 16.9568 0.109045 16.7785 0.296453C16.6002 0.483861 16.5 0.738041 16.5 1.00308C16.5 1.26811 16.6002 1.52229 16.7785 1.7097C16.9568 1.89711 17.1986 2.00239 17.4507 2.00239C17.7823 1.9759 18.1155 2.02026 18.4302 2.13279C18.745 2.24531 19.0349 2.42368 19.2823 2.65713C19.5297 2.89058 19.7296 3.17428 19.8699 3.49112C20.0101 3.80796 20.0879 4.15139 20.0985 4.50068C20.0985 4.76572 20.1987 5.0199 20.377 5.20731C20.5553 5.39472 20.7971 5.5 21.0493 5.5C21.3014 5.5 21.5432 5.39472 21.7215 5.20731C21.8998 5.0199 22 4.76572 22 4.50068C21.9878 3.8896 21.8598 3.2872 21.6235 2.72873C21.3872 2.17025 21.0473 1.66693 20.6237 1.24819C20.2001 0.829458 19.7013 0.503724 19.1565 0.290048C18.6117 0.0763718 18.0318 -0.0209556 17.4507 0.00375987Z" fill="#000"/>
<path d="M1.90147 4.50068C1.91207 4.15139 1.98985 3.80796 2.13014 3.49112C2.27042 3.17428 2.4703 2.89058 2.71772 2.65713C2.96515 2.42368 3.25498 2.24531 3.56976 2.13279C3.88454 2.02026 4.21774 1.9759 4.54926 2.00239C4.80142 2.00239 5.04324 1.89711 5.22154 1.7097C5.39983 1.52229 5.5 1.26811 5.5 1.00308C5.5 0.738041 5.39983 0.483861 5.22154 0.296453C5.04324 0.109045 4.80142 0.00375987 4.54926 0.00375987C3.96823 -0.0209556 3.38835 0.0763718 2.84353 0.290048C2.29872 0.503724 1.79992 0.829458 1.37631 1.24819C0.9527 1.66693 0.612793 2.17025 0.376473 2.72873C0.140153 3.2872 0.0121658 3.8896 0 4.50068C0 4.76572 0.100166 5.0199 0.278464 5.20731C0.456761 5.39472 0.698584 5.5 0.950735 5.5C1.20289 5.5 1.44471 5.39472 1.62301 5.20731C1.8013 5.0199 1.90147 4.76572 1.90147 4.50068Z" fill="#000"/>
<path d="M11.6643 10.4217V6.38108C11.6643 6.14741 11.5714 5.9233 11.406 5.75806C11.2405 5.59283 11.0161 5.5 10.7822 5.5C10.5482 5.5 10.3238 5.59283 10.1584 5.75806C9.99294 5.9233 9.9 6.14741 9.9 6.38108V10.7865C9.90005 11.0202 9.99303 11.2442 10.1585 11.4094L12.805 14.0527C12.9714 14.2132 13.1942 14.302 13.4255 14.3C13.6568 14.298 13.8781 14.2053 14.0416 14.0419C14.2052 13.8786 14.298 13.6576 14.3 13.4266C14.302 13.1956 14.2131 12.973 14.0524 12.8068L11.6643 10.4217Z" fill="#000"/>
</svg>
