<svg width="20" height="22" viewBox="0 0 20 22" fill="none" xmlns="http://www.w3.org/2000/svg">
<path d="M16.6667 2.2H15.5556V1.1C15.5556 0.808262 15.4385 0.528472 15.2301 0.322183C15.0217 0.115892 14.7391 0 14.4444 0C14.1498 0 13.8671 0.115892 13.6588 0.322183C13.4504 0.528472 13.3333 0.808262 13.3333 1.1V2.2H6.66667V1.1C6.66667 0.808262 6.5496 0.528472 6.34123 0.322183C6.13286 0.115892 5.85024 0 5.55556 0C5.26087 0 4.97826 0.115892 4.76988 0.322183C4.56151 0.528472 4.44444 0.808262 4.44444 1.1V2.2H3.33333C2.44928 2.2 1.60143 2.54768 0.976311 3.16655C0.35119 3.78542 0 4.62479 0 5.5V18.7C0 19.5752 0.35119 20.4146 0.976311 21.0335C1.60143 21.6523 2.44928 22 3.33333 22H16.6667C17.5507 22 18.3986 21.6523 19.0237 21.0335C19.6488 20.4146 20 19.5752 20 18.7V5.5C20 4.62479 19.6488 3.78542 19.0237 3.16655C18.3986 2.54768 17.5507 2.2 16.6667 2.2ZM3.33333 4.4H4.44444V5.5C4.44444 5.79174 4.56151 6.07153 4.76988 6.27782C4.97826 6.48411 5.26087 6.6 5.55556 6.6C5.85024 6.6 6.13286 6.48411 6.34123 6.27782C6.5496 6.07153 6.66667 5.79174 6.66667 5.5V4.4H13.3333V5.5C13.3333 5.79174 13.4504 6.07153 13.6588 6.27782C13.8671 6.48411 14.1498 6.6 14.4444 6.6C14.7391 6.6 15.0217 6.48411 15.2301 6.27782C15.4385 6.07153 15.5556 5.79174 15.5556 5.5V4.4H16.6667C16.9614 4.4 17.244 4.51589 17.4523 4.72218C17.6607 4.92847 17.7778 5.20826 17.7778 5.5V9.9H2.22222V5.5C2.22222 5.20826 2.33929 4.92847 2.54766 4.72218C2.75603 4.51589 3.03865 4.4 3.33333 4.4ZM16.6667 19.8H3.33333C3.03865 19.8 2.75603 19.6841 2.54766 19.4778C2.33929 19.2715 2.22222 18.9917 2.22222 18.7V12.1H17.7778V18.7C17.7778 18.9917 17.6607 19.2715 17.4523 19.4778C17.244 19.6841 16.9614 19.8 16.6667 19.8Z" fill="#000"/>
<path d="M5.55556 16.5C6.16921 16.5 6.66667 16.0075 6.66667 15.4C6.66667 14.7925 6.16921 14.3 5.55556 14.3C4.94191 14.3 4.44444 14.7925 4.44444 15.4C4.44444 16.0075 4.94191 16.5 5.55556 16.5Z" fill="#000"/>
<path d="M14.4444 14.3H10C9.70532 14.3 9.4227 14.4159 9.21433 14.6222C9.00595 14.8285 8.88889 15.1083 8.88889 15.4C8.88889 15.6917 9.00595 15.9715 9.21433 16.1778C9.4227 16.3841 9.70532 16.5 10 16.5H14.4444C14.7391 16.5 15.0217 16.3841 15.2301 16.1778C15.4385 15.9715 15.5556 15.6917 15.5556 15.4C15.5556 15.1083 15.4385 14.8285 15.2301 14.6222C15.0217 14.4159 14.7391 14.3 14.4444 14.3Z" fill="#000"/>
</svg>
