<svg width="22" height="22" viewBox="0 0 22 22" fill="none" xmlns="http://www.w3.org/2000/svg">
<path d="M11 0.0909424C8.84242 0.0909424 6.73326 0.730749 4.93927 1.92946C3.14528 3.12816 1.74704 4.83193 0.921352 6.8253C0.0956692 8.81868 -0.120367 11.0121 0.300562 13.1283C0.721492 15.2444 1.76048 17.1883 3.28614 18.7139C4.81181 20.2396 6.75562 21.2786 8.87178 21.6995C10.9879 22.1204 13.1814 21.9044 15.1748 21.0787C17.1681 20.253 18.8719 18.8548 20.0706 17.0608C21.2693 15.2668 21.9091 13.1576 21.9091 11C21.906 8.10772 20.7556 5.33477 18.7105 3.2896C16.6653 1.24442 13.8923 0.0940706 11 0.0909424ZM11 20.0909C9.20202 20.0909 7.44439 19.5578 5.9494 18.5588C4.45441 17.5599 3.2892 16.1401 2.60113 14.479C1.91306 12.8178 1.73303 10.9899 2.08381 9.22648C2.43458 7.46302 3.30041 5.84317 4.57179 4.57179C5.84318 3.3004 7.46302 2.43458 9.22649 2.0838C10.99 1.73303 12.8178 1.91306 14.479 2.60113C16.1401 3.2892 17.5599 4.4544 18.5588 5.94939C19.5578 7.44439 20.0909 9.20202 20.0909 11C20.0883 13.4103 19.1297 15.721 17.4254 17.4254C15.7211 19.1297 13.4103 20.0883 11 20.0909Z" fill="#000"/>
<path d="M12.2482 5.54549C12.0006 5.54549 11.7631 5.64447 11.588 5.82066C11.4129 5.99685 11.3145 6.23582 11.3145 6.48499V10.5483L8.16726 12.5326C7.95679 12.6649 7.80717 12.8759 7.75132 13.1192C7.69546 13.3626 7.73795 13.6182 7.86943 13.83C8.00092 14.0418 8.21062 14.1924 8.45242 14.2486C8.69422 14.3048 8.94831 14.262 9.15878 14.1297L12.7439 11.8749C12.8794 11.7895 12.9908 11.6706 13.0674 11.5294C13.1441 11.3883 13.1835 11.2297 13.1818 11.0688V6.48499C13.1818 6.23582 13.0834 5.99685 12.9083 5.82066C12.7333 5.64447 12.4958 5.54549 12.2482 5.54549Z" fill="#000"/>
</svg>
